<?xml version="1.0" encoding="UTF-8" standalone="no"?>
<!-- Created with Inkscape (http://www.inkscape.org/) -->

<svg
   width="254"
   height="62"
   viewBox="0 0 254 62"
   version="1.1"
   id="svg5"
   sodipodi:docname="logo.svg"
   inkscape:version="1.2.1 (9c6d41e410, 2022-07-14)"
   xml:space="preserve"
   inkscape:export-filename="logo.png"
   inkscape:export-xdpi="96.755905"
   inkscape:export-ydpi="96.755905"
   xmlns:inkscape="http://www.inkscape.org/namespaces/inkscape"
   xmlns:sodipodi="http://sodipodi.sourceforge.net/DTD/sodipodi-0.dtd"
   xmlns="http://www.w3.org/2000/svg"
   xmlns:svg="http://www.w3.org/2000/svg"><sodipodi:namedview
     id="namedview7"
     pagecolor="#ffffff"
     bordercolor="#000000"
     borderopacity="0.25"
     inkscape:showpageshadow="2"
     inkscape:pageopacity="0.0"
     inkscape:pagecheckerboard="0"
     inkscape:deskcolor="#d1d1d1"
     inkscape:document-units="px"
     showgrid="false"
     inkscape:zoom="1.7162309"
     inkscape:cx="79.534753"
     inkscape:cy="129.9359"
     inkscape:window-width="1596"
     inkscape:window-height="953"
     inkscape:window-x="214"
     inkscape:window-y="16"
     inkscape:window-maximized="0"
     inkscape:current-layer="g3558" /><defs
     id="defs2" /><g
     inkscape:label="Layer 1"
     inkscape:groupmode="layer"
     id="layer1"
     transform="translate(-2,-2)"><path
       style="font-style:normal;font-variant:normal;font-weight:normal;font-stretch:normal;font-size:90.5811px;font-family:'Ink Free';-inkscape-font-specification:'Ink Free, Normal';font-variant-ligatures:normal;font-variant-caps:normal;font-variant-numeric:normal;font-variant-east-asian:normal;display:none;fill:#666666;stroke-width:8.91352"
       d="M 30.5229,20.760587 C 24.769211,21.08827 19.887034,24.783263 15.434364,28.111689 7.3767839,34.60991 1.8465049,45.21321 3.5002829,55.711767 4.9388159,61.872582 10.932568,66.265416 17.134533,66.58422 10.963164,73.350388 8.1808269,84.269917 13.268701,92.427358 18.766002,100.6966 29.561621,103.12926 38.917987,102.42839 51.117404,101.37459 62.883977,95.287788 70.854218,86.003477 76.638822,79.546243 79.663142,69.58375 75.337605,61.55415 70.640002,52.763981 60.085551,49.060898 50.600581,49.231615 54.909544,44.80764 57.399357,38.315085 55.595805,32.214607 53.576423,24.359505 44.593136,20.4884 37.046733,21.336114 34.487641,22.211266 32.966879,21.136026 30.5229,20.760587 Z"
       id="path778"
       inkscape:label="eight" /><g
       id="g1189"
       style="display:inline"
       transform="translate(644.67914,90.642519)"><path
         id="path764"
         style="font-style:normal;font-variant:normal;font-weight:normal;font-stretch:normal;font-size:90.5811px;font-family:'Ink Free';-inkscape-font-specification:'Ink Free, Normal';font-variant-ligatures:normal;font-variant-caps:normal;font-variant-numeric:normal;font-variant-east-asian:normal;fill:#333333;stroke-width:8.91352"
         d="M 30.523438,20.759766 C 24.769764,21.087446 19.886249,24.782911 15.433594,28.111328 7.3760373,34.609531 1.8462271,45.212411 3.5,55.710938 c 1.4385288,6.160794 7.432819,10.554245 13.634766,10.873046 -6.171351,6.76615 -8.9530932,17.686336 -3.865235,25.84375 5.497286,8.269216 16.292099,10.700866 25.648438,9.999996 9.42702,-0.81429 16.033712,-2.683844 25.945312,-10.621089 -5.471501,0.16558 -8.490621,-2.621826 -10.509597,-5.16535 -7.239112,3.802525 -19.834134,6.584558 -26.582852,1.285413 -6.748718,-5.299145 -3.827956,-12.182119 -0.503679,-15.968761 3.650285,-4.157993 11.563927,-9.202075 22.715814,-13.358631 1.632815,-2.518865 1.371074,-5.95445 5.643986,-9.562203 -2.00046,-0.723688 -3.746815,-0.272637 -5.027344,0.195313 4.308951,-4.423963 6.79964,-10.917118 4.996094,-17.017578 C 53.576327,24.3598 44.593254,20.488224 37.046875,21.335938 34.487792,22.211087 32.967408,21.135202 30.523438,20.759766 Z"
         sodipodi:nodetypes="ccccccccsscccccc" /><path
         id="path772"
         style="font-style:normal;font-variant:normal;font-weight:normal;font-stretch:normal;font-size:90.5811px;font-family:'Ink Free';-inkscape-font-specification:'Ink Free, Normal';font-variant-ligatures:normal;font-variant-caps:normal;font-variant-numeric:normal;font-variant-east-asian:normal;fill:#d40000;stroke-width:8.91352"
         d="m 88.921881,17.677734 c -4.368546,0.31462 -8.107037,2.84692 -11.644531,5.201173 -5.486621,3.488441 -10.252418,8.065974 -14.190158,13.226524 -6.89435,9.05874 -11.11543,20.380779 -10.74228,31.84054 0.1309,5.036507 1.09737,10.125946 3.46824,14.611208 2.45704,4.812811 6.63182,8.891432 11.84982,10.540971 1.67577,0.707081 3.56833,0.697859 5.250077,0.96717 0.645296,0.05689 1.439955,0.35026 1.388328,1.139389 0.013,1.459815 0.854895,2.763268 1.663473,3.928104 3.995809,5.202667 16.994115,3.911837 19.859347,0.315964 -6.249351,0.0071 -8.50205,-1.412227 -6.523413,-8.513229 1.36865,-0.313438 2.735155,-0.717614 3.924957,-1.476354 7.282679,-3.173536 14.343509,-7.510515 19.183869,-13.942503 2.77896,-3.686073 4.83785,-8.105091 4.90049,-12.791209 0.14735,-4.113249 -1.44535,-8.414453 -4.78098,-10.95785 -3.82716,-3.099972 -9.08709,-3.742735 -13.81503,-2.894416 -4.887425,0.814277 -9.457961,3.157954 -13.090966,6.510227 -6.009258,5.505007 -9.610384,13.187473 -11.408875,21.038542 -0.333694,1.278974 -0.458678,2.597434 -0.706434,3.892469 -1.156007,-0.527875 -2.379228,-1.027852 -3.246521,-2.00813 -2.436302,-2.606042 -3.190162,-6.292583 -3.474182,-9.737964 -0.55727,-9.701749 2.76757,-19.803884 9.784459,-26.664807 3.015834,-2.900226 6.389689,-5.411805 9.999105,-7.52628 2.524108,-1.571201 5.178434,-2.938114 7.657843,-4.574538 2.749634,-2.148285 3.596739,-6.617193 1.267883,-9.371591 -1.628441,-1.81023 -4.132121,-2.83247 -6.574524,-2.75341 z"
         inkscape:label="six"
         sodipodi:nodetypes="sccccccccccccccccccccccccss" /><path
         id="path884"
         style="fill:#ffffff;stroke-width:4.16"
         d="m 43.603497,31.320824 c 0,5.879063 -6.608323,16.3769 -12.487386,16.3769 -5.879063,0 -18.424013,7.721464 -18.424013,1.842401 0,-5.879063 8.655436,-12.692098 14.534499,-12.692098 5.879063,0 16.376901,-11.406267 16.3769,-5.527203 z"
         sodipodi:nodetypes="sssss" /></g><path
       id="path1051"
       style="font-size:113.56px;font-family:'Ink Free';-inkscape-font-specification:'Ink Free, Normal';fill:#333333;stroke-width:0.696856"
       d="m 718.30708,351.40034 c -3.4789,-0.0297 -7.67226,1.47516 -8.92393,4.98713 -0.49714,7.74262 1.99161,13.24854 2.92463,20.86511 -0.77843,3.71942 3.72762,2.84306 5.57688,5.11507 4.32825,3.41788 5.1917,9.40726 4.19345,14.53405 -1.06859,6.28928 -4.29684,11.98287 -8.06819,17.03793 0.20576,4.81716 0.0525,9.65616 0.46289,14.45899 1.29724,6.12227 9.8966,8.29142 14.17642,3.87648 3.53452,-3.72485 4.38169,-9.05286 6.58329,-13.5482 2.32498,-5.52666 2.43327,-13.02227 7.47489,-16.46451 2.81196,8.13772 -0.49749,16.28047 -0.33028,24.41748 0.82896,6.0641 8.64679,8.9898 13.5828,5.71351 3.63466,-2.0141 4.90318,-6.42455 4.42543,-10.32222 -0.2429,-8.6061 0.11164,-17.24869 -0.61139,-25.83062 -0.76162,-4.26786 -2.90014,-8.27815 -5.57636,-11.64825 -3.88774,-3.20142 -10.41844,-3.73385 -14.8947,-1.59992 -2.88475,1.63531 -7.02144,3.1712 -8.56905,5.63194 -0.27567,-8.68703 -0.45059,-17.49096 -2.97063,-25.88507 -1.06647,-3.59514 -1.60274,-5.5049 -3.64949,-8.69635 -1.42208,-1.67476 -3.60351,-2.69462 -5.80666,-2.64255 z"
       sodipodi:nodetypes="cscccccccccccccccccc" /><path
       id="path1049"
       style="font-size:113.56px;font-family:'Ink Free';-inkscape-font-specification:'Ink Free, Normal';fill:#333333;stroke-width:0.73026"
       d="m 678.76633,354.91663 c -4.40525,-0.0674 -8.49452,3.69155 -8.73251,8.1021 -0.2213,1.75137 0.17781,3.60199 0.42577,5.37 0.19316,1.51137 0.13381,3.04114 0.25383,4.55961 0.15114,3.14682 0.28015,6.29447 0.40122,9.44253 1.57787,2.62137 2.26714,5.77842 1.91803,8.82247 0.72059,1.42931 1.02472,3.02974 1.14428,4.61483 0.23449,6.554 0.45791,13.11045 0.66118,19.6648 0.63924,0.99687 1.11729,2.11132 1.25686,3.29691 0.24342,2.0896 -0.21886,4.1904 -1.15042,6.06582 0.89849,0.97538 1.97739,1.77786 3.21175,2.30436 0.70532,0.31702 1.4837,0.46828 2.22714,0.6119 2.30738,2.72455 6.25362,3.96352 9.68436,2.91217 3.63762,-0.9003 6.59844,-3.33181 9.50219,-5.57261 7.35868,-5.85327 13.73153,-13.14532 17.72908,-21.7072 2.20671,-4.855 3.48245,-10.30707 2.6652,-15.63934 -0.84657,-4.78514 -4.55479,-9.0541 -9.34251,-10.17723 -4.31797,-1.11241 -8.92513,0.003 -12.75693,2.11812 -3.06809,1.64331 -5.8332,3.8088 -8.31288,6.24182 -0.085,-6.37005 -0.0375,-12.74337 -0.14123,-19.11224 -0.24557,-3.7851 -1.79147,-7.66087 -4.82888,-10.05444 -1.65761,-1.24645 -3.74142,-1.91765 -5.81553,-1.86438 z" /><path
       id="path1047"
       style="font-size:113.56px;font-family:'Ink Free';-inkscape-font-specification:'Ink Free, Normal';fill:#333333;stroke-width:0.696856"
       d="m 659.53536,378.18549 c -0.2114,-0.006 -0.42247,-0.005 -0.63476,0.002 -3.85925,0.16048 -7.34317,2.15179 -10.33789,4.44922 -1.83939,1.40715 -3.57064,2.93802 -5.21289,4.5586 0.59229,1.96007 0.60454,4.09152 -0.1836,6.00195 -1.18407,2.64294 -3.4432,4.82996 -6.17187,5.83008 -1.1611,0.44989 -2.40882,0.58076 -3.63477,0.46093 -0.27702,0.41014 -0.56053,0.81555 -0.83203,1.22852 -2.72981,4.21633 -5.16425,8.70942 -6.48242,13.58203 -0.94645,3.88696 -0.60292,8.26925 1.72656,11.6211 2.22564,3.26733 6.2032,5.17052 10.13477,5.03124 5.31201,0.0394 10.44684,-2.21782 14.46875,-5.60156 1.3658,-1.10454 2.64855,-2.30967 3.875,-3.5664 0.561,3.06347 2.12934,6.13108 4.86132,7.78125 3.06875,1.85389 7.356,1.61978 10.01954,-0.86133 2.58559,-2.31232 4.19587,-5.86043 3.78906,-9.35352 -0.13318,-1.1315 -0.59124,-2.19509 -1.20117,-3.14648 -0.19395,-6.25531 -0.40712,-12.51262 -0.63086,-18.76758 -0.11407,-1.51277 -0.4023,-3.04018 -1.08985,-4.4043 0.46381,-4.04518 -0.98573,-8.30516 -3.98437,-11.09375 -2.25828,-2.20065 -5.30748,-3.66273 -8.47852,-3.75195 z" /><path
       id="path1045"
       style="font-size:113.56px;font-family:'Ink Free';-inkscape-font-specification:'Ink Free, Normal';fill:#333333;stroke-width:1.04894"
       d="m 637.4405,347.82075 c -5.37979,0.23085 -10.22375,3.41759 -14.00529,7.34287 -0.40504,0.69918 -0.66986,-0.40484 -1.04961,-0.65813 -2.70065,-3.26031 -6.9327,-4.7797 -10.93304,-4.28384 -4.20631,0.3976 -8.30226,2.95968 -10.26638,7.05038 -1.58531,3.04457 -1.62714,6.63753 -1.46662,10.02713 0.038,1.4898 0.0729,2.97989 0.11063,4.4697 1.82739,1.97287 3.60073,4.0142 5.04101,6.33132 3.81958,6.11635 5.12616,13.95345 3.48358,21.10847 -1.33912,5.67658 -3.86684,10.98387 -7.23952,15.57849 0.13093,1.46282 0.2886,2.92371 0.50212,4.37829 0.72467,4.51372 2.9674,9.06892 6.90478,11.18798 5.48221,3.06072 12.9281,0.92341 16.21231,-4.71346 2.21001,-3.49843 2.74053,-7.9152 2.25242,-12.03804 -0.26943,-4.12593 -0.59396,-8.2627 -0.80281,-12.29703 -0.0691,-0.77554 -0.12207,-1.54644 0.29785,-2.22723 2.80166,-7.04365 5.86864,-14.01993 9.92597,-20.34373 3.25895,2.70659 7.80801,3.57926 11.67911,1.96826 3.96327,-1.56017 7.2445,-4.97187 8.96429,-9.0948 1.68781,-4.39413 0.89572,-9.55117 -1.48933,-13.47006 -3.79088,-6.54913 -10.97052,-10.54314 -18.12147,-10.31657 z" /><path
       id="path1043"
       style="font-size:113.56px;font-family:'Ink Free';-inkscape-font-specification:'Ink Free, Normal';fill:#333333;stroke-width:0.79165"
       d="m 580.33973,371.5212 c -4.3691,0.0723 -8.39885,2.84617 -10.95358,6.59327 -1.84674,2.87448 -3.38152,5.98204 -4.74819,9.15511 -0.3252,0.77543 -0.62503,1.56123 -0.919,2.35126 2.81296,2.30019 5.19656,5.24534 6.52662,8.81494 2.00364,5.27853 1.49449,11.3788 -0.62117,16.51901 -1.36062,3.39746 -3.3904,6.40601 -5.84376,8.94683 0.55613,0.75554 1.16317,1.47071 1.83375,2.12216 2.89145,2.86583 6.73244,4.41934 10.6047,4.73493 6.59861,0.70354 13.42427,-1.43313 18.61407,-5.93834 5.20429,-4.40553 9.16437,-10.64874 10.78978,-17.62753 1.23177,-5.43464 0.25196,-11.38733 -2.61235,-16.03303 -1.30556,-2.12742 -2.97516,-3.95551 -4.64182,-5.74625 -0.5093,-0.587 -1.16183,-1.07438 -1.60825,-1.68939 -0.73305,-3.66462 -3.79481,-6.56332 -7.22014,-6.90799 -0.42127,0.0789 -0.57195,-0.27247 -0.75307,-0.6179 -1.83236,-3.00209 -5.16367,-4.74243 -8.44759,-4.67708 z m 1.36786,26.79886 0.57225,0.46747 c 1.56632,1.29816 3.22981,2.55391 4.44823,4.25125 -0.19892,1.44898 -1.09421,2.65711 -1.93586,3.75139 -1.40933,1.69031 -3.41902,3.12538 -5.60336,2.87891 0.0351,-3.303 0.69681,-6.69732 1.85502,-9.67583 0.21325,-0.56128 0.4309,-1.12114 0.66372,-1.67319 z" /><path
       id="path1041"
       d="m 555.48447,354.67089 c -7.65142,0.27831 -15.10687,2.87352 -21.86656,6.66308 -4.77344,2.78285 -9.25961,6.43155 -12.35418,11.30836 -2.61583,4.31793 -3.53529,9.97031 -1.83671,14.86969 1.2869,3.85561 4.03319,6.9644 7.23637,9.07016 4.33584,2.98658 9.34497,4.45334 14.15158,6.27782 3.38014,1.23745 6.87761,2.24579 10.00657,4.14757 0.49347,0.33159 1.05476,0.68152 1.38861,1.17725 -0.91964,2.52779 -3.29436,4.07527 -5.64984,4.68611 -1.84702,0.45549 -3.76426,0.39662 -5.63756,0.19164 -1.89317,-3.19273 -5.88285,-4.527 -9.16725,-3.31788 -1.99617,0.68691 -3.64274,2.24975 -4.76886,4.13104 -1.51652,2.26165 -2.75449,4.89494 -2.9007,7.72699 -0.10038,3.78609 2.14311,7.44686 5.34431,8.94401 3.37875,1.80322 7.21185,2.12622 10.91515,2.36179 5.34384,0.25121 10.81243,-0.61044 15.65236,-3.16049 5.57239,-2.81335 10.43388,-7.59596 12.91432,-13.74946 1.96426,-4.74142 2.43755,-10.3682 0.5773,-15.23721 -1.61624,-4.30953 -4.90182,-7.63844 -8.57379,-9.92836 -5.9325,-3.81529 -12.74539,-5.42525 -19.21238,-7.82211 -1.2635,-0.48103 -2.56769,-0.99054 -3.74097,-1.6351 1.64742,-1.45486 3.5506,-2.52582 5.43567,-3.5698 3.2778,-1.67223 6.76283,-3.01326 10.3883,-3.401 0.66669,-0.11548 1.29017,0.14672 1.85212,0.50551 3.4211,1.71726 7.97418,0.53283 10.03856,-2.95914 1.49391,-2.35755 1.55658,-5.36496 1.24468,-8.10378 -0.14053,-3.40885 -2.06678,-6.75728 -5.03262,-8.072 -1.99109,-1.01288 -4.23896,-1.14641 -6.40448,-1.10469 z"
       style="font-size:113.56px;font-family:'Ink Free';-inkscape-font-specification:'Ink Free, Normal';fill:#333333;stroke-width:0.73261"
       inkscape:label="letter s" /><path
       id="path1191"
       style="font-style:normal;font-variant:normal;font-weight:normal;font-stretch:normal;font-size:90.5811px;font-family:'Ink Free';-inkscape-font-specification:'Ink Free, Normal';font-variant-ligatures:normal;font-variant-caps:normal;font-variant-numeric:normal;font-variant-east-asian:normal;fill:#ff0000;stroke-width:2.93318"
       d="m 739.23155,349.6167 c -1.90743,0.11149 -3.63781,1.0676 -5.14708,2.17605 -1.55039,1.05256 -2.88543,2.42234 -3.87312,4.01642 -1.43177,2.28038 -2.14598,5.07638 -1.66996,7.75208 0.41438,1.80891 1.68315,3.36043 3.29763,4.24756 -1.07756,2.21166 -1.37303,4.87932 -0.45497,7.19749 0.7919,2.06187 2.56139,3.63184 4.5591,4.49815 2.35498,1.02891 5.00621,1.20297 7.53008,0.85177 1.93736,-0.23262 3.84041,-0.8111 5.53412,-1.78931 1.87946,-1.05057 3.48979,-2.49551 5.18915,-3.80165 0.78735,-0.62183 1.57471,-1.24366 2.36207,-1.86549 -2.06737,0.0263 -4.13503,0.0752 -6.20222,0.0874 -0.68247,-0.0124 -1.23651,-0.48352 -1.6194,-1.00935 -0.32594,-0.40074 -0.65188,-0.80149 -0.97782,-1.20224 -1.11747,0.5595 -2.21099,1.19601 -3.4289,1.51682 -1.25744,0.33941 -2.61395,0.56041 -3.89273,0.20702 -0.5458,-0.16977 -1.11325,-0.53443 -1.285,-1.10747 -0.0765,-0.62892 0.31235,-1.20705 0.70737,-1.66021 1.04239,-1.08774 2.37501,-1.8392 3.70038,-2.52774 1.1624,-0.58905 2.37668,-1.06449 3.59472,-1.52388 0.37132,-0.6001 0.72624,-1.21513 0.93433,-1.89389 0.16424,-0.54469 0.45638,-1.05784 0.91752,-1.40401 0.87297,-0.75879 1.74593,-1.51759 2.61889,-2.27639 -0.76076,-0.24701 -1.52152,-0.49403 -2.28229,-0.74105 0.61563,-1.60553 0.65373,-3.42918 0.0525,-5.04491 -0.65241,-1.84411 -2.22502,-3.25324 -4.02316,-3.95378 -1.35415,-0.53117 -2.85036,-0.73167 -4.29077,-0.51945 -0.29017,0.13841 -0.58714,-0.0719 -0.88034,-0.10907 -0.31798,-0.0634 -0.64438,-0.16882 -0.97006,-0.12088 z" /><path
       id="path1193"
       style="font-style:normal;font-variant:normal;font-weight:normal;font-stretch:normal;font-size:90.5811px;font-family:'Ink Free';-inkscape-font-specification:'Ink Free, Normal';font-variant-ligatures:normal;font-variant-caps:normal;font-variant-numeric:normal;font-variant-east-asian:normal;fill:#ff0000;stroke-width:2.93318"
       inkscape:label="six"
       d="m 761.47685,348.18469 c -1.65717,0.066 -3.16801,0.86706 -4.51743,1.77155 -1.44167,0.90758 -2.78899,1.96957 -3.96264,3.20686 -2.99969,3.10957 -5.06333,7.1884 -5.47795,11.51277 -0.23176,2.58379 0.0369,5.28654 1.21893,7.62779 1.03253,2.1124 2.86671,3.87494 5.12546,4.60278 0.37278,0.14003 0.76354,0.2281 1.15753,0.2828 0.40977,0.88282 1.05752,1.67331 1.9255,2.13596 1.43579,0.7947 3.15035,0.92357 4.75276,0.71618 1.24739,-0.18024 2.54947,-0.57118 3.44711,-1.50179 1.01251,-1.12582 2.02499,-2.25166 3.03748,-3.37748 -1.11447,-0.0174 -2.22894,-0.0347 -3.34341,-0.0521 2.56484,-1.25558 4.96347,-3.02852 6.51094,-5.46704 1.11433,-1.72512 1.71971,-3.83815 1.39095,-5.88966 -0.24917,-1.64479 -1.15792,-3.19481 -2.53887,-4.13944 -1.73344,-1.23676 -4.0022,-1.51091 -6.05524,-1.09359 -2.38893,0.4466 -4.55485,1.80717 -6.1193,3.65054 -0.6707,0.77908 -1.25,1.63612 -1.73084,2.54452 0.31564,-2.13689 1.34783,-4.19954 3.0257,-5.58784 1.4045,-1.26484 3.10956,-2.10655 4.70754,-3.08926 1.79762,-1.02449 2.57811,-3.483 1.70215,-5.35756 -0.72914,-1.59585 -2.54273,-2.53193 -4.25637,-2.49603 z" /><g
       id="g1250"
       transform="translate(611.62422,310.3475)"><path
         id="path1228"
         d="m 196.88769,-77.528776 c -3.05396,0.122424 -6.2245,1.432841 -7.94454,4.058412 -1.52436,2.149995 -1.55771,4.985732 -0.93159,7.456476 0.94965,4.938931 1.05697,9.984007 1.3821,14.989179 0.63837,11.698252 0.90222,23.380562 1.17337,35.09396 0.0477,1.795929 -0.0274,3.611188 0.24767,5.38996 0.79744,3.560821 4.29764,6.1576406 7.897,6.2052404 3.36864,0.2347856 6.64686,-1.8393358 8.1704,-4.8022947 1.61234,-2.7249897 2.41951,-5.8182197 3.71732,-8.6893397 2.57329,-6.361783 5.34971,-12.710492 8.36989,-18.830728 0.25678,-0.698128 0.15155,0.20872 0.18145,0.492088 0.0774,6.282336 -0.2354,12.550879 -0.41936,18.82777 -0.0323,1.69075 -0.15855,3.391409 -0.0124,5.077661 0.49771,3.4233569 3.41595,6.2145011 6.77251,6.8532918 3.69083,0.8271414 7.82953,-0.8254819 9.81587,-4.0727217 1.27518,-1.9600371 1.62022,-4.3738781 1.42988,-6.6681881 -0.10138,-7.68044 -0.14833,-15.362413 -0.32262,-23.041384 -0.22961,-5.495509 -1.02782,-11.134126 -3.66752,-16.037727 -1.60536,-2.969709 -4.19622,-5.586489 -7.52515,-6.493101 -3.25165,-0.926514 -6.81838,-0.107849 -9.57768,1.772082 -3.6312,2.381169 -6.07454,6.080101 -8.38295,9.666347 -0.29907,0.615284 -0.13305,-0.467019 -0.19589,-0.714007 -0.19588,-5.620338 -0.40004,-11.252559 -1.09339,-16.837772 -0.33244,-2.354728 -0.79588,-4.825464 -2.34203,-6.719385 -1.41357,-1.88041 -3.72321,-3.040083 -6.08217,-2.986641 -0.22007,-0.0049 -0.44013,0.0079 -0.66016,0.0108 z"
         style="font-size:113.56px;font-family:'Ink Free';-inkscape-font-specification:'Ink Free, Normal';fill:#333333;stroke-width:0.696856" /><path
         id="path1230"
         d="m 159.21778,-80.548942 c -4.20322,-0.06439 -8.10661,3.522788 -8.33369,7.73211 -0.21115,1.671472 0.17,3.43787 0.40659,5.125225 0.1843,1.442407 0.12758,2.90258 0.24209,4.351768 0.41876,8.720878 0.69075,17.447895 0.96552,26.174258 0.16476,5.610158 0.24852,11.282056 0.32946,16.9165 0.22093,3.61895 2.42023,7.201527 5.80776,8.646805 0.67297,0.302559 1.41499,0.448045 2.12434,0.58512 2.20157,2.6002435 5.96621,3.7826044 9.23962,2.7792238 3.47079,-0.8592259 6.29639,-3.1809848 9.06697,-5.3195518 7.02121,-5.586218 13.10267,-12.544005 16.9169,-20.715255 2.1055,-4.633488 3.32277,-9.837741 2.543,-14.926734 -0.80775,-4.566827 -4.34642,-8.641592 -8.91458,-9.713479 -4.11994,-1.061655 -8.5156,0.0038 -12.17167,2.022436 -2.9274,1.568325 -5.56683,3.634567 -7.9328,5.956587 -0.0811,-6.079416 -0.036,-12.161343 -0.13511,-18.239637 -0.23431,-3.612409 -1.70906,-7.312469 -4.60718,-9.596839 -1.58159,-1.189568 -3.56823,-1.829386 -5.54722,-1.778537 z"
         style="font-size:113.56px;font-family:'Ink Free';-inkscape-font-specification:'Ink Free, Normal';fill:#ffffff;stroke-width:0.696856" /><path
         id="path1232"
         d="m 156.43058,-80.548942 c -4.20322,-0.06439 -8.10661,3.522788 -8.33369,7.73211 -0.21115,1.671472 0.17,3.43787 0.40659,5.125225 0.1843,1.442407 0.12758,2.90258 0.24209,4.351768 0.41876,8.720878 0.69075,17.447895 0.96552,26.174258 0.16476,5.610158 0.24852,11.282056 0.32946,16.9165 0.22093,3.61895 2.42022,7.201527 5.80776,8.646805 0.67297,0.302559 1.41499,0.448045 2.12434,0.58512 2.20157,2.6002435 5.96621,3.7826044 9.23962,2.7792238 3.47079,-0.8592259 6.29639,-3.1809848 9.06697,-5.3195518 7.02121,-5.586218 13.10267,-12.544005 16.9169,-20.715255 2.1055,-4.633488 3.32277,-9.837741 2.543,-14.926734 -0.80775,-4.566827 -4.34642,-8.641592 -8.91458,-9.713479 -4.11994,-1.061655 -8.5156,0.0038 -12.17167,2.022436 -2.9274,1.568325 -5.56684,3.634567 -7.9328,5.956587 -0.0811,-6.079416 -0.036,-12.161343 -0.13511,-18.239637 -0.23431,-3.612409 -1.70906,-7.312469 -4.60718,-9.596839 -1.58159,-1.189568 -3.56823,-1.829386 -5.54722,-1.778537 z"
         style="font-size:113.56px;font-family:'Ink Free';-inkscape-font-specification:'Ink Free, Normal';fill:#333333;stroke-width:0.696856" /><path
         id="path1234"
         d="m 137.26247,-60.752518 c -3.85925,0.160476 -7.34374,2.152789 -10.33847,4.450221 -6.44614,4.931341 -11.59985,11.334254 -16.03506,18.080472 -2.72981,4.216336 -5.16271,8.707856 -6.48088,13.58047 -0.94645,3.88696 -0.60348,8.270722 1.726,11.62257 2.22564,3.2673399 6.2029,5.1701433 10.13447,5.0308708 5.31202,0.039429 10.44647,-2.2185938 14.46838,-5.6023328 1.36581,-1.104539 2.64915,-2.308498 3.8756,-3.565228 0.561,3.063472 2.12831,6.129578 4.8603,7.7797418 3.06874,1.853895 7.35645,1.6210959 10.01999,-0.8600188 2.5856,-2.312325 4.196,-5.860181 3.78918,-9.353274 -0.13317,-1.131508 -0.59051,-2.195351 -1.20044,-3.14674 -0.19395,-6.255313 -0.40717,-12.513925 -0.63091,-18.76889 -0.11407,-1.512775 -0.40326,-3.040174 -1.09081,-4.404288 0.46381,-4.045188 -0.98515,-8.303939 -3.98379,-11.09253 -2.40883,-2.347367 -5.71687,-3.854096 -9.11356,-3.751044 z"
         style="font-size:113.56px;font-family:'Ink Free';-inkscape-font-specification:'Ink Free, Normal';fill:#ffffff;stroke-width:0.696856" /><path
         id="path1236"
         d="m 135.24181,-60.752518 c -3.85925,0.160476 -7.34374,2.152789 -10.33847,4.450221 -6.44614,4.931341 -11.59985,11.334254 -16.03506,18.080472 -2.72981,4.216336 -5.16271,8.707856 -6.48088,13.58047 -0.94645,3.88696 -0.60348,8.270722 1.726,11.62257 2.22564,3.2673399 6.2029,5.1701433 10.13447,5.0308708 5.31202,0.039429 10.44647,-2.2185938 14.46838,-5.6023328 1.3658,-1.104539 2.64915,-2.308498 3.8756,-3.565228 0.561,3.063472 2.12831,6.129578 4.8603,7.7797418 3.06875,1.853895 7.35645,1.6210959 10.01999,-0.8600188 2.5856,-2.312325 4.196,-5.860181 3.78919,-9.353274 -0.13318,-1.131508 -0.59052,-2.195351 -1.20045,-3.14674 -0.19395,-6.255313 -0.40717,-12.513925 -0.63091,-18.76889 -0.11407,-1.512775 -0.40326,-3.040174 -1.09081,-4.404288 0.46381,-4.045188 -0.98515,-8.303939 -3.98379,-11.09253 -2.40883,-2.347367 -5.71687,-3.854096 -9.11356,-3.751044 z"
         style="font-size:113.56px;font-family:'Ink Free';-inkscape-font-specification:'Ink Free, Normal';fill:#333333;stroke-width:0.696856" /><path
         id="path1238"
         d="m 106.00653,-60.990701 c -3.70397,0.148 -7.039943,2.192031 -9.643515,4.708258 -0.278866,0.448205 -0.461459,-0.261135 -0.722918,-0.423505 -1.859386,-2.089976 -4.771817,-3.063477 -7.526037,-2.745619 -2.896039,0.254879 -5.717228,1.898571 -7.069509,4.520849 -1.091486,1.951679 -1.11874,4.254194 -1.008226,6.427041 0.181505,6.638941 0.364271,13.277804 0.502408,19.917811 0.145192,4.447004 0.108237,8.922746 0.80291,13.329051 0.498936,2.89345 2.042939,5.8143014 4.753798,7.1726911 3.774487,1.9620276 8.901194,0.5913506 11.162359,-3.0220781 1.521581,-2.242625 1.886623,-5.07411 1.550564,-7.716985 -0.185496,-2.644857 -0.409193,-5.295241 -0.552995,-7.88139 -0.0476,-0.497148 -0.08293,-0.992084 0.206167,-1.4285 1.928934,-4.515224 4.041074,-8.987014 6.834524,-13.040786 2.24377,1.735018 5.37444,2.29365 8.03969,1.260937 2.72868,-1.000123 4.98829,-3.187031 6.17236,-5.829971 1.16205,-2.816784 0.61621,-6.122343 -1.02588,-8.634488 -2.61002,-4.198224 -7.55231,-6.758554 -12.4757,-6.613316 z"
         style="font-size:113.56px;font-family:'Ink Free';-inkscape-font-specification:'Ink Free, Normal';fill:#ffffff;stroke-width:0.696856" /><path
         id="path1240"
         d="m 103.2191,-60.990701 c -3.703965,0.148 -7.039936,2.192031 -9.643508,4.708258 -0.278866,0.448205 -0.46146,-0.261135 -0.722919,-0.423505 -1.859386,-2.089976 -4.771816,-3.063477 -7.526036,-2.745619 -2.896039,0.254879 -5.717228,1.898571 -7.069509,4.520849 -1.091486,1.951679 -1.11874,4.254194 -1.008226,6.427041 0.181505,6.638941 0.364271,13.277804 0.502407,19.917811 0.145193,4.447004 0.108238,8.922746 0.802911,13.329051 0.498935,2.89345 2.042939,5.8143014 4.753798,7.1726911 3.774487,1.9620276 8.901193,0.5913506 11.162358,-3.0220781 1.521581,-2.242625 1.886624,-5.07411 1.550564,-7.716985 -0.185496,-2.644857 -0.409192,-5.295241 -0.552994,-7.88139 -0.0476,-0.497148 -0.08293,-0.992084 0.206166,-1.4285 1.928936,-4.515224 4.041073,-8.987014 6.834528,-13.040786 2.24377,1.735018 5.37444,2.29365 8.03968,1.260937 2.72869,-1.000123 4.9883,-3.187031 6.17237,-5.829971 1.16205,-2.816784 0.61621,-6.122343 -1.02588,-8.634488 -2.61002,-4.198224 -7.55231,-6.758554 -12.47571,-6.613316 z"
         style="font-size:113.56px;font-family:'Ink Free';-inkscape-font-specification:'Ink Free, Normal';fill:#333333;stroke-width:0.696856" /><path
         id="path1242"
         d="m 59.481044,-58.15428 c -4.011338,0.06099 -7.711351,2.402078 -10.056889,5.56449 -1.695515,2.425955 -3.103639,5.047685 -4.358395,7.725633 -2.797694,6.132067 -4.340441,12.834499 -4.556023,19.568797 -0.0193,4.856811 1.778663,9.857579 5.452367,13.138192 2.654681,2.4186537 6.181069,3.73088 9.73625,3.9972243 6.058278,0.5937673 12.324878,-1.2098377 17.089713,-5.0120543 4.778132,-3.718109 8.413316,-8.986095 9.905625,-14.875933 1.130909,-4.586628 0.23102,-9.610792 -2.398751,-13.531587 -1.198651,-1.795462 -2.730666,-3.337968 -4.260848,-4.849282 -0.467594,-0.495408 -1.066873,-0.907401 -1.476741,-1.426441 -0.67302,-3.092804 -3.484809,-5.539836 -6.629657,-5.830723 -0.386783,0.06658 -0.523764,-0.229745 -0.690051,-0.521281 -1.682321,-2.533646 -4.741576,-4.002199 -7.7566,-3.947035 z m 1.780249,23.011214 c 1.43806,1.095585 2.965845,2.156584 4.0845,3.589079 -0.182634,1.22288 -1.004666,2.242549 -1.777402,3.166075 -1.293924,1.426562 -3.139401,2.637203 -5.144881,2.429188 0.03225,-2.787596 0.640658,-5.652541 1.70403,-8.16628 0.19579,-0.473701 0.395989,-0.94549 0.609749,-1.411405 0.174668,0.131115 0.349335,0.262229 0.524004,0.393343 z"
         style="font-size:113.56px;font-family:'Ink Free';-inkscape-font-specification:'Ink Free, Normal';fill:#ffffff;stroke-width:0.696856" /><path
         id="path1244"
         d="m 57.320533,-58.15428 c -4.011338,0.06099 -7.711351,2.402078 -10.056889,5.56449 -1.695515,2.425955 -3.103639,5.047685 -4.358395,7.725633 -2.797694,6.132067 -4.340441,12.834499 -4.556023,19.568797 -0.0193,4.856811 1.778664,9.857579 5.452367,13.138192 2.654681,2.4186537 6.181069,3.73088 9.73625,3.9972243 6.058278,0.5937673 12.324882,-1.2098377 17.089717,-5.0120543 4.778132,-3.718109 8.413312,-8.986095 9.905622,-14.875933 1.130908,-4.586628 0.231019,-9.610792 -2.398748,-13.531587 -1.198652,-1.795462 -2.730666,-3.337968 -4.260848,-4.849282 -0.467595,-0.495408 -1.066873,-0.907401 -1.476741,-1.426441 -0.67302,-3.092804 -3.484809,-5.539836 -6.629657,-5.830723 -0.386783,0.06658 -0.523764,-0.229745 -0.690051,-0.521281 -1.682325,-2.533646 -4.74158,-4.002199 -7.756604,-3.947035 z m 1.780249,23.011214 c 1.43806,1.095585 2.965845,2.156584 4.0845,3.589079 -0.182634,1.22288 -1.004666,2.242549 -1.777401,3.166075 -1.293925,1.426562 -3.139401,2.637203 -5.144881,2.429188 0.03225,-2.787596 0.640657,-5.652541 1.704029,-8.16628 0.19579,-0.473701 0.395989,-0.94549 0.609749,-1.411405 0.174668,0.131115 0.349336,0.262229 0.524004,0.393343 z"
         style="font-size:113.56px;font-family:'Ink Free';-inkscape-font-specification:'Ink Free, Normal';fill:#333333;stroke-width:0.696856" /><path
         id="path1246"
         d="m 34.203157,-77.61044 c -7.566383,0.254645 -14.938966,2.629111 -21.623532,6.096346 -4.7203785,2.546154 -9.1566958,5.884514 -12.21686851,10.34652 -2.58675669,3.950679 -3.49599329,9.122292 -1.81629899,13.604958 1.27259814,3.527665 3.9883707,6.372036 7.1559498,8.298682 4.2876494,2.732562 9.2411067,4.074569 13.9942947,5.743863 3.34257,1.132202 6.801163,2.054784 9.895346,3.794803 0.487983,0.303387 1.043038,0.62355 1.37318,1.077116 -0.909415,2.31279 -3.257744,3.728656 -5.58705,4.287536 -1.826488,0.416749 -3.722422,0.362886 -5.574894,0.175335 -1.872131,-2.921167 -5.817473,-4.141945 -9.065363,-3.03568 -1.9739898,0.628492 -3.6022582,2.058397 -4.7158589,3.779679 -1.4996617,2.06928 -2.7238771,4.478601 -2.8684607,7.06977 -0.099267,3.464065 2.1192919,6.8134611 5.2849086,8.1832739 3.341197,1.6498484 7.131698,1.9453774 10.793833,2.1609073 5.284451,0.2298483 10.69226,-0.5585137 15.478403,-2.8916719 5.510446,-2.5740563 10.31791,-6.9498843 12.770777,-12.5800013 1.942428,-4.338134 2.410458,-9.486322 0.57089,-13.941208 -1.598275,-3.942981 -4.847343,-6.988749 -8.478506,-9.083897 -5.866556,-3.49078 -12.603729,-4.963798 -18.998837,-7.156797 -1.24946,-0.440116 -2.53916,-0.906294 -3.699396,-1.496027 1.629111,-1.331114 3.511141,-2.310985 5.375252,-3.266168 3.241373,-1.529998 6.687672,-2.756966 10.27285,-3.111732 0.659271,-0.105656 1.275828,0.134242 1.831528,0.462511 3.383079,1.571206 7.885554,0.487517 9.926986,-2.707452 1.477306,-2.157017 1.539284,-4.908635 1.230846,-7.414503 -0.13897,-3.118916 -2.043807,-6.182545 -4.976682,-7.385436 -1.968965,-0.926728 -4.191847,-1.048901 -6.333297,-1.010727 z"
         style="font-size:113.56px;font-family:'Ink Free';-inkscape-font-specification:'Ink Free, Normal';fill:#ffffff;stroke-width:0.696856"
         inkscape:label="letter s" /><path
         id="path1248"
         d="m 31.415734,-77.61044 c -7.566383,0.254645 -14.938966,2.629111 -21.6235321,6.096346 -4.7203787,2.546154 -9.15669603,5.884514 -12.2168687,10.34652 -2.5867567,3.950679 -3.4959933,9.122292 -1.816299,13.604958 1.2725981,3.527665 3.98837072,6.372036 7.1559498,8.298682 4.2876494,2.732562 9.241106,4.074569 13.994295,5.743863 3.34257,1.132202 6.801163,2.054784 9.895346,3.794803 0.487983,0.303387 1.043038,0.62355 1.373179,1.077116 -0.909415,2.31279 -3.257744,3.728656 -5.587049,4.287536 -1.826488,0.416749 -3.722422,0.362886 -5.574894,0.175335 -1.872131,-2.921167 -5.817474,-4.141945 -9.0653633,-3.03568 -1.9739898,0.628492 -3.6022583,2.058397 -4.715859,3.779679 -1.4996616,2.06928 -2.723877,4.478601 -2.86846064,7.06977 -0.0992671,3.464065 2.11929184,6.8134611 5.28490864,8.1832739 3.3411972,1.6498484 7.1316983,1.9453774 10.7938333,2.1609073 5.284451,0.2298483 10.69226,-0.5585137 15.478402,-2.8916719 5.510447,-2.5740563 10.317911,-6.9498843 12.770777,-12.5800013 1.942429,-4.338134 2.410459,-9.486322 0.570891,-13.941208 -1.598276,-3.942981 -4.847344,-6.988749 -8.478506,-9.083897 -5.866557,-3.49078 -12.603729,-4.963798 -18.998838,-7.156797 -1.249459,-0.440116 -2.53916,-0.906294 -3.699395,-1.496027 1.62911,-1.331114 3.511141,-2.310985 5.375251,-3.266168 3.241374,-1.529998 6.687673,-2.756966 10.27285,-3.111732 0.659271,-0.105656 1.275828,0.134242 1.831529,0.462511 3.383078,1.571206 7.885554,0.487517 9.926986,-2.707452 1.477306,-2.157017 1.539283,-4.908635 1.230845,-7.414503 -0.138969,-3.118916 -2.043806,-6.182545 -4.976681,-7.385436 -1.968965,-0.926728 -4.191847,-1.048901 -6.333297,-1.010727 z"
         style="font-size:113.56px;font-family:'Ink Free';-inkscape-font-specification:'Ink Free, Normal';fill:#333333;stroke-width:0.696856"
         inkscape:label="letter s" /></g><g
       id="g4020"><g
         id="g3558"
         transform="translate(2.2360011,2.2179804)"><path
           id="path207"
           style="fill:#cccccc;stroke-width:2.37937"
           d="m 47.349997,2.0021164 c -2.224519,0.0056 -4.449898,0.01894 -6.673828,0.0059 -3.116794,5.62e-4 -6.232815,0.0014 -9.349609,0.002 -7.344614,0.02469 -14.692548,-0.01933 -22.0351565,0.04883 -3.770121,0.301052 -7.06776,3.579371 -7.244141,7.384766 -0.100062,3.5677866 -0.0054,7.1426936 -0.03516,10.7128896 0.0142,6.294933 -0.01179,12.591028 0.04883,18.884766 0.283009,3.80682 3.645636,7.0638 7.458984,7.24219 3.6261145,0.09 7.2584805,0.006 10.8867195,0.0352 2.936455,3.5e-4 9.872138,0.002 12.808594,0.002 v 5.39258 H 3.9984345 v 7.49218 H 43.336325 V 37.007975 H 11.412497 v -25.6875 h 40.634766 v 13.351562 h 9.400391 c -0.02225,-5.204281 0.05322,-10.414251 -0.06836,-15.6152336 -0.397584,-3.688538 -3.657206,-6.78143 -7.357422,-7.011719 -2.222903,-0.04597 -4.447356,-0.04852 -6.671875,-0.04297 z"
           sodipodi:nodetypes="scccccccccccccccccccccs" /><path
           id="path201"
           style="fill:#ff6600;stroke-width:2.24713"
           d="m 48.152732,26.521647 c -1.106877,0 -2.011719,1.127812 -2.011719,2.507812 v 27.666019 c 0,1.38 0.904842,2.50976 2.011719,2.50976 h 14.251953 c 1.106872,0 2.011719,-1.12976 2.011719,-2.50976 V 29.029459 c 0,-1.380005 -0.904847,-2.484375 -2.011719,-2.484375 z m 7.121093,27.134761 a 1.8010011,1.8010011 0 0 1 0.50586,0.07032 1.8010011,1.8010011 0 0 1 1.230469,2.22461 l -1.730469,-0.49414 1.722656,0.52539 a 1.8010011,1.8010011 0 0 1 -2.240234,1.19921 1.8010011,1.8010011 0 0 1 -1.210938,-2.23437 1.8010011,1.8010011 0 0 1 1.722656,-1.29102 z" /><path
           id="path3756"
           style="font-size:73.7958px;font-family:Gabriola;-inkscape-font-specification:'Gabriola, Normal';fill:#cccccc;stroke-width:30.7483;stroke-linecap:round;stroke-linejoin:bevel;paint-order:fill markers stroke"
           d="m 90.618366,28.219186 c -4.73557,-1.214231 -7.819611,9.968624 -8.515261,1.637435 -4.14514,-5.446508 -18.941811,4.587305 -8.405807,5.439178 3.020274,4.188635 0.0382,14.786239 0.364429,21.390189 8.799628,7.68033 8.908848,-8.29583 11.193259,-13.83532 0.96586,-4.799275 4.77288,-7.042258 8.92387,-5.345577 4.42642,-2.85483 1.75602,-10.161048 -3.56049,-9.285905 z" /><path
           id="path3758"
           style="font-size:73.7958px;font-family:Gabriola;-inkscape-font-specification:'Gabriola, Normal';fill:#cccccc;stroke-width:30.7483;stroke-linecap:round;stroke-linejoin:bevel;paint-order:fill markers stroke"
           d="m 110.86251,28.228952 c -8.02992,-1.789534 -18.584194,12.206613 -6.57617,13.748047 -5.219274,0.664386 -11.718334,12.521549 -3.39069,16.494429 6.80107,4.42741 11.04882,-7.80903 15.19953,-0.005 5.54208,4.71156 16.22066,-7.37897 5.85372,-5.61804 -5.62751,-4.18261 1.5087,-14.910235 -2.91219,-21.043617 -1.64713,-2.795086 -5.10962,-3.757757 -8.1742,-3.575409 z m -1.44336,6.162109 c 7.81087,2.220277 -1.19297,9.343147 -2.50737,6.492103 2.63184,-2.082686 -3.96028,-7.141728 2.50737,-6.492103 z m 1.96094,11.900387 c -0.40382,5.64923 -9.92869,7.01865 -4.22656,0.96485 1.10649,-0.59487 3.4479,-1.31198 4.22656,-0.96485 z" /><path
           id="path3760"
           style="font-size:73.7958px;font-family:Gabriola;-inkscape-font-specification:'Gabriola, Normal';fill:#cccccc;stroke-width:30.7483;stroke-linecap:round;stroke-linejoin:bevel;paint-order:fill markers stroke"
           d="m 134.70236,5.4848114 c -7.5855,2.548638 -3.27748,13.4224726 -5.02788,19.7403676 -0.89184,10.383796 -0.1011,21.051109 -2.88814,31.173699 2.39632,6.59598 6.33498,-2.66601 10.1811,2.50009 10.97748,2.94878 19.50529,-8.85205 18.79897,-18.850635 1.65187,-8.382687 -8.39899,-16.153278 -14.85267,-8.924851 -3.27927,3.600589 -4.96382,6.32808 -3.67015,-0.449161 -1.20139,-7.907375 5.88058,-19.827875 -0.69516,-25.0835666 l -1.84607,-0.105933 z m 11.26367,31.0585936 c 4.57076,5.733504 -1.35862,21.984663 -9.06775,14.493773 -0.1263,-5.23429 4.0056,-12.674958 9.06775,-14.493773 z" /><path
           id="path3762"
           style="font-size:73.7958px;font-family:Gabriola;-inkscape-font-specification:'Gabriola, Normal';fill:#cccccc;stroke-width:30.7483;stroke-linecap:round;stroke-linejoin:bevel;paint-order:fill markers stroke"
           d="m 164.9172,5.4848114 c -8.29448,4.220194 -2.93161,17.6891726 -5.26495,25.7514556 0.68607,9.013219 -3.50468,19.743871 0.513,27.602061 9.23377,1.16072 5.65187,-10.46871 9.63417,-15.60841 2.32307,-7.654734 8.58043,-7.83571 5.79012,0.83477 -1.2419,6.06445 -0.78509,18.48353 8.46162,14.29481 6.85844,-0.43064 6.8223,-9.65007 -0.61833,-6.21453 -1.32392,-7.15865 3.15349,-15.35998 -1.51889,-21.731012 -4.9464,-7.427399 -14.48126,4.622049 -14.61371,3.246046 -1.28994,-8.890494 6.05229,-21.847519 -0.53779,-28.0701856 z" /><path
           id="path3764"
           style="font-size:73.7958px;font-family:Gabriola;-inkscape-font-specification:'Gabriola, Normal';fill:#ff6600;stroke-width:39.7624;stroke-linecap:round;stroke-linejoin:bevel;paint-order:fill markers stroke"
           d="m 241.96133,2.4298504 c -0.7405,-0.010925 -1.48352,0.064554 -2.21094,0.238281 -6.37739,0.533915 -11.6467,3.583517 -15.68164,7.9980466 -1.81499,-4.4978616 -5.95324,-8.0204076 -11.42578,-8.0019526 l -1.25,-0.076172 -1.24609,0.00586 C 195.5414,1.3360404 185.93321,21.667872 198.67031,30.619303 c -10.10203,5.333976 -12.00805,22.473025 -0.32617,27.105465 7.21112,3.44882 16.67236,1.57101 22.56445,-3.63086 4.02357,4.10673 9.66769,6.38484 15.73633,4.85157 15.0538,-2.23079 21.01872,-26.070481 6.78907,-33.396488 -5.84808,-5.893893 -21.51709,5.873694 -15.07227,-6.078124 2.31425,-9.024734 12.21939,-9.136473 18.30859,-4.646485 9.38588,-4.174016 2.4492,-12.2889236 -4.70898,-12.3945306 z M 209.44961,10.76774 c 15.43037,6.422561 -7.89061,21.905456 -6.23242,3.628907 0.67495,-2.675365 3.74787,-3.773201 6.23242,-3.628907 z m 22.29297,21.185547 c 0.56145,-0.0014 1.17275,0.03097 1.83594,0.09961 14.03035,1.733584 3.88747,29.664691 -5.32813,14.386721 -0.8565,-2.565158 -1.75132,-5.230983 -2.10742,-7.572268 -0.0161,-0.249838 -0.048,-0.494793 -0.0957,-0.732422 -0.36425,-3.5436 0.76211,-6.169699 5.69531,-6.181641 z M 206.10781,35.2111 c 11.08498,1.454522 12.84354,19.260398 -0.9082,15.419918 -6.40387,-2.36591 -4.96821,-14.161241 0.9082,-15.419918 z" /></g></g></g></svg>
