<?xml version="1.0" encoding="utf-8"?>
<!-- Generator: Adobe Illustrator 19.1.1, SVG Export Plug-In . SVG Version: 6.00 Build 0)  -->
<svg version="1.1" id="Layer_1" xmlns="http://www.w3.org/2000/svg" xmlns:xlink="http://www.w3.org/1999/xlink" x="0px" y="0px"
	 width="84.8px" height="89.9px" viewBox="267 350.9 84.8 89.9" style="enable-background:new 267 350.9 84.8 89.9;"
	 xml:space="preserve">
<g>
	<path fill="#2B46CA" d="M347,403.5l-28.9,15l-14-4.4l37.8-18.5L304,377.2l14-4.4l28.6,14.8l-18.4-28.8
		c14.2,6.6,23.6,20.8,23.6,37c0,16.4-10,31.1-24.6,37.4L347,403.5z"/>
	<path fill="#777" d="M313.6,440.7l12.3-16.8c-14.3,6.4-27.8,2.5-36.6-10.2l36.6-18.2l-36.4-17.6
		c8.7-12,22.1-15.9,35.4-9.4c1.3,0.6,2.5,1.3,3.6,2l-14-19.5c-7.2-0.6-14.8,0.9-22.4,4.7c-22.3,11.1-31.7,37.2-20.2,60.3
		C280.2,432.6,296,441.8,313.6,440.7z"/>
</g>
</svg>
