<svg version="1.1" id="logo" xmlns="http://www.w3.org/2000/svg" viewBox="0 0 101 101">

	<symbol id="logoicon" viewBox="0 0 101 101">
		<g class="icon">
			<path d="M66.1,29C66.7,18.2,81,15.7,85,0.5c-19.7,13.9-27.5-5.2-50.3,2S9.6,35.3,16.2,51.6
				c11.8,17.2,34.5,12.9,68.6-2.7C78,50.9,65.6,38.8,66.1,29z M48,19.7c-2.9,0-5.2-2.4-5.2-5.3c0-3,2.3-5.3,5.2-5.3
				c2.9,0,5.2,2.4,5.2,5.3C53.2,17.3,50.8,19.7,48,19.7z"/>
			<path d="M84.7,60.9l0-6.5c-20.3,9.1-34.6,13.2-46,13.2c-10.1,0-22.6,5.9-22.6,12
				c15.1,33.6,68.8,16.5,68.8,16.5C83.4,96.6,88,82.8,88,82.8C66.6,88.5,49.2,76.3,84.7,60.9z"/>
		</g>
	</symbol>

	<rect x="0" y="0" width="95" height="96" transform="rotate(45)" transform-origin="50.5 50.5"/>
	<use href="#logoicon" fill="#fff" x="20.5" y="20.5" width="60" height="60"/>
</svg>
